<?xml version="1.0" standalone="no"?>
<!DOCTYPE svg PUBLIC "-//W3C//DTD SVG 20010904//EN"
 "http://www.w3.org/TR/2001/REC-SVG-20010904/DTD/svg10.dtd">
<svg version="1.0" xmlns="http://www.w3.org/2000/svg"
 width="676.000000pt" height="369.000000pt" viewBox="0 0 676.000000 369.000000"
 preserveAspectRatio="xMidYMid meet">

<g transform="translate(0.000000,369.000000) scale(0.100000,-0.100000)"
fill="#000000" stroke="none">
<path d="M3034 3320 c-31 -12 -55 -50 -45 -68 5 -9 26 -27 47 -41 21 -14 37
-30 36 -35 0 -5 -37 -22 -81 -37 -44 -15 -114 -43 -156 -63 -42 -20 -78 -36
-81 -36 -7 0 -241 -149 -257 -163 -6 -7 -38 -31 -69 -55 -74 -56 -226 -208
-283 -282 -91 -119 -125 -223 -91 -287 31 -62 130 -97 211 -74 21 6 41 8 43 6
3 -3 1 -33 -4 -67 l-9 -63 -44 -7 c-50 -8 -87 -38 -107 -85 -20 -47 -19 -338
1 -386 17 -42 78 -87 117 -87 l27 0 3 -268 c3 -265 3 -267 30 -322 69 -143
177 -200 380 -200 l118 0 0 -110 0 -109 29 -16 c148 -76 437 -119 661 -97 154
15 283 44 366 82 l64 29 0 110 0 111 119 0 c117 0 157 8 236 45 49 22 116 95
144 155 26 54 26 59 29 323 l3 267 27 0 c35 0 98 43 117 80 21 40 22 358 1
398 -23 43 -60 72 -102 79 -47 7 -51 13 -59 78 -10 68 -51 188 -88 255 -26 47
-30 64 -28 120 1 53 7 72 29 105 16 22 41 67 58 100 26 53 29 70 29 150 -1
106 -16 144 -90 216 -74 73 -194 126 -353 155 -210 39 -406 39 -647 2 -71 -11
-144 -23 -162 -25 -29 -5 -33 -1 -52 35 -19 36 -74 93 -89 91 -4 0 -17 -4 -28
-9z m1218 -937 c51 -86 77 -149 103 -249 13 -52 15 -150 15 -610 l0 -549 -29
-50 c-31 -54 -87 -99 -142 -115 -21 -6 -337 -10 -816 -10 -872 0 -842 -2 -917
68 -78 75 -76 50 -76 655 0 663 5 697 102 726 18 5 65 22 103 36 242 93 322
119 420 134 110 18 112 18 671 19 l531 2 35 -57z"/>
<path d="M2819 2201 c-84 -17 -160 -76 -202 -155 -17 -33 -21 -59 -22 -131 0
-80 3 -95 27 -137 56 -94 161 -158 259 -158 53 0 127 27 174 64 53 41 62 52
92 115 22 47 25 63 21 130 -9 154 -109 260 -258 274 -30 3 -71 2 -91 -2z m150
-153 c36 -23 70 -86 71 -131 0 -44 -24 -91 -66 -125 -33 -28 -46 -32 -96 -32
-54 0 -60 3 -102 43 -71 68 -73 159 -5 226 54 54 129 61 198 19z"/>
<path d="M3819 2201 c-84 -17 -159 -75 -202 -155 -18 -33 -22 -58 -22 -131 0
-81 3 -95 28 -137 60 -100 150 -153 262 -152 82 0 139 23 199 81 120 117 117
306 -7 424 -60 58 -171 88 -258 70z m148 -152 c36 -22 73 -91 73 -134 0 -44
-36 -107 -75 -132 -25 -17 -50 -23 -90 -23 -51 0 -58 3 -99 43 -51 49 -65 96
-47 157 31 103 145 146 238 89z"/>
<path d="M3115 1422 c-22 -9 -79 -43 -127 -74 -174 -116 -256 -125 -366 -42
l-33 26 7 -39 c14 -75 66 -150 132 -191 77 -47 165 -66 279 -59 131 8 230 40
331 109 l42 29 45 -31 c96 -66 196 -97 335 -106 217 -14 374 84 405 251 l7 40
-24 -21 c-44 -39 -80 -56 -131 -61 -67 -7 -129 18 -245 96 -48 32 -108 66
-134 76 -69 25 -143 17 -209 -24 -46 -28 -53 -30 -68 -17 -58 52 -171 70 -246
38z"/>
</g>
</svg>
